<?xml version="1.0" standalone="no"?><!DOCTYPE svg PUBLIC "-//W3C//DTD SVG 1.1//EN" "http://www.w3.org/Graphics/SVG/1.1/DTD/svg11.dtd"><svg t="1758707023399" class="icon" viewBox="0 0 1024 1024" version="1.1" xmlns="http://www.w3.org/2000/svg" p-id="4712" xmlns:xlink="http://www.w3.org/1999/xlink" width="200" height="200"><path d="M686.848 783.5648a30.72 30.72 0 0 1 0 61.44H338.688a30.72 30.72 0 0 1 0-61.44h348.16zM732.928 174.2848a102.4 102.4 0 0 1 102.4 102.4v358.4a102.4 102.4 0 0 1-102.4 102.4H292.608a102.4 102.4 0 0 1-102.4-102.4V276.6848a102.4 102.4 0 0 1 102.4-102.4h440.32z m0 61.44H292.608a40.96 40.96 0 0 0-40.6528 35.84L251.648 276.6848v358.4a40.96 40.96 0 0 0 35.84 40.6528L292.608 676.0448h440.32a40.96 40.96 0 0 0 40.6528-35.84L773.888 635.0848V276.6848a40.96 40.96 0 0 0-35.84-40.6528l-5.12-0.3072z m-40.96 66.56v307.2H630.528v-307.2h61.44z m-199.5776 0l117.8112 307.2h-66.56l-19.4048-50.5344H393.9328L374.528 609.4848H307.968l117.8624-307.2h66.56zM459.008 389.0176l-39.6288 103.3728h79.3088l-39.68-103.3728z" fill="#3388FF" p-id="4713"></path></svg>